<?xml version="1.0" encoding="utf-8"?>
<!-- Generator: Adobe Illustrator 25.4.1, SVG Export Plug-In . SVG Version: 6.00 Build 0)  -->
<svg version="1.1" id="Capa_1" xmlns="http://www.w3.org/2000/svg" xmlns:xlink="http://www.w3.org/1999/xlink" x="0px" y="0px"
	 viewBox="0 0 100 100" style="enable-background:new 0 0 100 100;" xml:space="preserve">
<style type="text/css">
	.st0{fill:#FFFFFF;}
</style>
<g>
	<path class="st0" d="M41.8,5.6c0-1.6,0.1-3.3,0.2-4.9C18.5,4.5,0.5,25,0.5,49.7c0,12.7,4.9,25,13.7,34.2C23,93.1,35,98.6,47.7,99.2
		c12.7,0.6,25.2-3.7,34.9-12c9.6-8.3,15.7-20,17-32.7c-2.7,0.4-5.3,0.7-8,0.7c-13.2,0-25.8-5.2-35.1-14.5
		C47.1,31.3,41.8,18.7,41.8,5.6L41.8,5.6z"/>
</g>
</svg>
