<?xml version="1.0" encoding="utf-8"?>
<!-- Generator: Adobe Illustrator 25.4.1, SVG Export Plug-In . SVG Version: 6.00 Build 0)  -->
<svg version="1.1" id="Capa_1" xmlns="http://www.w3.org/2000/svg" xmlns:xlink="http://www.w3.org/1999/xlink" x="0px" y="0px"
	 viewBox="0 0 100 100" style="enable-background:new 0 0 100 100;" xml:space="preserve">
<style type="text/css">
	.st0{fill:#FFFFFF;}
</style>
<g>
	<path class="st0" d="M78.8,50c0,15.9-12.9,28.8-28.8,28.8S21.2,65.9,21.2,50S34.1,21.2,50,21.2S78.8,34.1,78.8,50"/>
	<path class="st0" d="M48.2,2.3v12.4c0,1,0.8,1.8,1.8,1.8s1.8-0.8,1.8-1.8V2.3c0-1-0.8-1.8-1.8-1.8S48.2,1.3,48.2,2.3z"/>
	<path class="st0" d="M48.2,85.2v12.4c0,1,0.8,1.8,1.8,1.8s1.8-0.8,1.8-1.8V85.2c0-1-0.8-1.8-1.8-1.8S48.2,84.2,48.2,85.2L48.2,85.2
		z"/>
	<path class="st0" d="M25.3,7.1c-0.9,0.5-1.2,1.6-0.7,2.5l6.2,10.8c0.5,0.9,1.6,1.2,2.5,0.7c0.9-0.5,1.2-1.6,0.7-2.5L27.8,7.8
		C27.2,6.9,26.1,6.6,25.3,7.1z"/>
	<path class="st0" d="M66.7,78.9c-0.9,0.5-1.2,1.6-0.7,2.5l6.2,10.8c0.5,0.9,1.6,1.2,2.5,0.7c0.9-0.5,1.2-1.6,0.7-2.5l-6.2-10.8
		C68.7,78.7,67.6,78.4,66.7,78.9z"/>
	<path class="st0" d="M7.8,27.8L18.6,34c0.9,0.5,2,0.2,2.5-0.7c0.5-0.9,0.2-2-0.7-2.5L9.6,24.6c-0.9-0.5-2-0.2-2.5,0.7
		C6.6,26.1,6.9,27.2,7.8,27.8L7.8,27.8z"/>
	<path class="st0" d="M78.9,66.7c-0.5,0.9-0.2,2,0.7,2.5l10.8,6.2c0.9,0.5,2,0.2,2.5-0.7c0.5-0.9,0.2-2-0.7-2.5L81.4,66
		C80.6,65.5,79.4,65.8,78.9,66.7L78.9,66.7z"/>
	<path class="st0" d="M30.8,79.6l-6.2,10.8c-0.5,0.9-0.2,2,0.7,2.5c0.9,0.5,2,0.2,2.5-0.7L34,81.4c0.5-0.9,0.2-2-0.7-2.5
		C32.4,78.4,31.3,78.7,30.8,79.6z"/>
	<path class="st0" d="M66.7,21.1c0.9,0.5,2,0.2,2.5-0.7l6.2-10.8c0.5-0.9,0.2-2-0.7-2.5c-0.9-0.5-2-0.2-2.5,0.7L66,18.6
		C65.5,19.4,65.8,20.6,66.7,21.1L66.7,21.1z"/>
	<path class="st0" d="M7.1,74.7c0.5,0.9,1.6,1.2,2.5,0.7l10.8-6.2c0.9-0.5,1.2-1.6,0.7-2.5c-0.5-0.9-1.6-1.2-2.5-0.7L7.8,72.2
		C6.9,72.7,6.6,73.9,7.1,74.7z"/>
	<path class="st0" d="M92.9,25.3c-0.5-0.9-1.6-1.2-2.5-0.7l-10.8,6.2c-0.9,0.5-1.2,1.6-0.7,2.5c0.5,0.9,1.6,1.2,2.5,0.7l10.8-6.2
		C93.1,27.2,93.4,26.1,92.9,25.3z"/>
	<path class="st0" d="M97.7,48.2H85.2c-1,0-1.8,0.8-1.8,1.8c0,1,0.8,1.8,1.8,1.8h12.4c1,0,1.8-0.8,1.8-1.8
		C99.5,49,98.7,48.2,97.7,48.2z"/>
	<path class="st0" d="M2.3,51.8h12.4c1,0,1.8-0.8,1.8-1.8c0-1-0.8-1.8-1.8-1.8H2.3c-1,0-1.8,0.8-1.8,1.8C0.5,51,1.3,51.8,2.3,51.8z"
		/>
</g>
</svg>
